#!OML:ASF F:\VICON\USERDATA\INSTALL\rory3\rory3.ASF
:FULLY-SPECIFIED
:DEGREES
632
root 2.98887 18.2144 -15.9791 44.5235 70.3036 16.2931
lowerback -0.13536 0.969493 4.56452
upperback -13.7955 4.1671 10.7278
thorax -16.155 2.91457 9.12917
lowerneck -6.25031 -18.9837 -6.84937
upperneck -1.17581 -25.0337 10.0094
head 2.96746 -12.2913 2.79322
rclavicle 5.65542e-014 6.67916e-014
rhumerus -34.7414 47.9511 -27.139
rradius 62.3947
rwrist 20.1581
rhand -28.5504 60.6046
rfingers 7.12502
rthumb -1.91751 30.6335
lclavicle 5.65542e-014 6.67916e-014
lhumerus -49.5279 -33.6804 22.0023
lradius 98.8743
lwrist -51.0419
lhand -57.5179 3.45524
lfingers 7.12502
lthumb -29.7858 31.0811
rfemur -43.0908 7.28454 12.77
rtibia 29.2384
rfoot -18.6943 -36.4198
rtoes 28.8561
lfemur -32.4782 -0.145111 -32.6023
ltibia 26.9915
lfoot 10.5434 31.9063
ltoes -7.35203
633
root 2.96887 18.2324 -15.9437 44.835 72.6143 16.7112
lowerback -0.250977 0.533672 4.99882
upperback -13.7617 3.75825 11.4955
thorax -16.0709 2.77969 9.8718
lowerneck -5.97741 -18.7416 -7.039
upperneck -1.82038 -24.6662 10.1414
head 2.71531 -12.1326 2.95606
rclavicle 7.33515e-014 -8.5875e-014
rhumerus -33.1033 47.3508 -24.8009
rradius 60.395
rwrist 20.2763
rhand -28.4159 60.9196
rfingers 7.12502
rthumb -1.78756 30.9473
lclavicle 7.33515e-014 -8.5875e-014
lhumerus -52.2128 -32.1868 21.9223
lradius 97.8818
lwrist -51.0155
lhand -52.2695 0.0798958
lfingers 7.12502
lthumb -24.7658 28.4965
rfemur -42.6181 7.17068 13.5622
rtibia 29.2484
rfoot -19.2107 -36.5358
rtoes 29.4604
lfemur -32.7745 0.438842 -32.0064
ltibia 27.1154
lfoot 12.045 32.0988
ltoes -10.527
634
root 2.94653 18.2474 -15.9042 45.4672 74.7574 17.6012
lowerback -0.513035 0.196661 4.8052
upperback -13.4946 3.36459 12.2767
thorax -15.6138 2.71706 10.9738
lowerneck -6.29208 -18.6511 -6.74558
upperneck -2.28981 -24.5046 9.99107
head 2.52891 -12.0603 2.8862
rclavicle 1.35174e-014 5.725e-014
rhumerus -31.3618 46.8259 -22.4484
rradius 58.4049
rwrist 19.5451
rhand -28.4075 60.4426
rfingers 7.12502
rthumb -1.77952 30.4703
lclavicle 1.35174e-014 5.725e-014
lhumerus -54.2086 -30.4146 21.7057
lradius 96.815
lwrist -50.6769
lhand -46.2264 -3.16187
lfingers 7.12502
lthumb -18.9634 25.9337
rfemur -41.9188 6.47142 14.518
rtibia 29.1041
rfoot -19.177 -36.3967
rtoes 30.1209
lfemur -33.0155 1.32024 -31.6494
ltibia 27.4288
lfoot 13.6869 31.7916
ltoes -11.2218
635
root 2.91781 18.2547 -15.8981 48.018 77.0529 20.301
lowerback 0.00371394 0.291588 5.82631
upperback -14.1179 3.76931 11.8019
thorax -16.7344 2.79251 9.80975
lowerneck -6.16319 -19.1383 -5.96838
upperneck -1.89481 -25.2226 9.68979
head 2.53924 -12.4148 2.62536
rclavicle -1.59028e-014 -6.99722e-014
rhumerus -33.3062 46.2383 -23.08
rradius 56.2937
rwrist 19.3339
rhand -28.7889 59.8045
rfingers 7.12502
rthumb -2.14787 29.8356
lclavicle -1.59028e-014 -6.99722e-014
lhumerus -53.7877 -30.7337 19.9374
lradius 95.7931
lwrist -50.1065
lhand -43.4992 -4.7934
lfingers 7.12502
lthumb -16.3391 24.5383
rfemur -41.4065 5.35232 15.1388
rtibia 28.9532
rfoot -19.4219 -35.9559
rtoes 32.1214
lfemur -33.3876 0.971804 -31.2532
ltibia 27.7472
lfoot 12.5379 33.1287
ltoes -4.31748
636
root 2.89129 18.2624 -15.8841 51.058 79.129 23.5419
lowerback 0.165562 0.135374 6.33608
upperback -14.3296 3.74488 11.911
thorax -17.1254 2.76645 9.68108
lowerneck -6.37137 -19.3214 -6.02187
upperneck -1.629 -25.474 9.68444
head 2.69112 -12.5246 2.56805
rclavicle 7.55382e-014 -1.39944e-013
rhumerus -33.0343 45.5399 -22.3582
rradius 53.6851
rwrist 20.0114
rhand -29.8582 59.1455
rfingers 7.12502
rthumb -3.18054 29.1895
lclavicle 7.55382e-014 -1.39944e-013
lhumerus -54.5919 -30.0799 18.8702
lradius 94.8225
lwrist -49.6032
lhand -45.3869 -5.0976
lfingers 7.12502
lthumb -18.1559 24.075
rfemur -40.8333 5.8834 15.0143
rtibia 28.817
rfoot -22.3522 -35.6101
rtoes 34.7502
lfemur -33.6167 0.314679 -30.6851
ltibia 28.0373
lfoot 10.4152 34.7888
ltoes 2.67758
637
root 2.86552 18.2686 -15.8755 56.952 81.1759 29.4316
lowerback -0.296277 0.323048 6.31675
upperback -14.4659 4.00027 11.7426
thorax -17.0165 2.89879 9.44379
lowerneck -6.31663 -19.7502 -4.81595
upperneck -2.56612 -26.0365 9.7886
head 2.24281 -12.8308 2.46694
rclavicle -3.89618e-014 1.43125e-013
rhumerus -33.698 42.9574 -21.7103
rradius 51.0915
rwrist 20.2163
rhand -28.8215 60.8262
rfingers 7.12502
rthumb -2.17934 30.8576
lclavicle -3.89618e-014 1.43125e-013
lhumerus -53.5758 -29.314 17.4312
lradius 93.4303
lwrist -49.2253
lhand -44.366 -5.23079
lfingers 7.12502
lthumb -17.1735 24.0303
rfemur -40.3322 6.79577 14.4714
rtibia 28.3787
rfoot -26.041 -34.9942
rtoes 38.4971
lfemur -34.2246 -0.253939 -30.3163
ltibia 28.6233
lfoot 9.08282 35.7061
ltoes 7.40009
638
root 2.83616 18.2706 -15.8544 65.3978 83.7412 37.7886
lowerback -0.792532 -0.0272019 6.82954
upperback -14.4359 3.68524 12.4339
thorax -16.6982 2.80463 10.0373
lowerneck -7.06917 -19.6078 -4.91962
upperneck -2.85435 -25.7939 9.83746
head 2.27635 -12.6961 2.45232
rclavicle -2.78299e-015 4.77083e-014
rhumerus -31.9753 40.6895 -19.4385
rradius 48.6474
rwrist 21.2813
rhand -28.9992 60.391
rfingers 7.12502
rthumb -2.35092 30.4242
lclavicle -2.78299e-015 4.77083e-014
lhumerus -54.7507 -27.8566 17.026
lradius 92.0481
lwrist -49.0672
lhand -42.0402 -5.5491
lfingers 7.12502
lthumb -14.9339 23.8925
rfemur -39.9756 7.15632 15.0039
rtibia 28.1804
rfoot -27.3067 -34.8515
rtoes 38.5784
lfemur -34.7658 -0.606454 -29.2752
ltibia 28.7761
lfoot 9.0662 35.8715
ltoes 11.0319
639
root 2.80868 18.2802 -15.8215 77.7128 87.7761 50.2037
lowerback -0.898058 -0.131416 9.34672
upperback -14.5548 4.02506 13.0294
thorax -16.8766 2.77489 9.30604
lowerneck -7.54557 -19.6545 -3.88722
upperneck -3.28948 -25.8608 9.58352
head 2.02456 -12.738 2.23988
rclavicle 4.92986e-014 -1.74931e-013
rhumerus -31.8535 38.2001 -18.1068
rradius 46.4227
rwrist 22.4654
rhand -29.0303 60.3829
rfingers 7.12502
rthumb -2.38101 30.4165
lclavicle 4.92986e-014 -1.74931e-013
lhumerus -55.2643 -27.7729 16.0893
lradius 90.7967
lwrist -48.4426
lhand -44.2046 -5.25862
lfingers 7.12502
lthumb -17.0181 24.0159
rfemur -39.0461 7.78801 17.5119
rtibia 27.5458
rfoot -30.2466 -33.9684
rtoes 38.0694
lfemur -35.4775 -0.580131 -26.2698
ltibia 29.4292
lfoot 9.94289 35.2748
ltoes 12.0552
640
root 2.82516 18.2839 -15.8676 101.597 86.6454 75.2088
lowerback -0.431001 -0.351793 8.50746
upperback -14.2856 3.55248 12.7368
thorax -16.7205 2.57808 9.45272
lowerneck -7.88531 -19.1779 -4.24827
upperneck -3.16751 -25.2015 9.67713
head 2.14844 -12.3911 2.32345
rclavicle 6.2816e-014 2.54444e-014
rhumerus -30.0312 36.1103 -16.6057
rradius 44.3521
rwrist 24.0609
rhand -29.1153 60.7194
rfingers 7.12502
rthumb -2.46304 30.7539
lclavicle 6.2816e-014 2.54444e-014
lhumerus -56.3349 -26.3802 14.9991
lradius 89.4671
lwrist -48.338
lhand -44.7533 -3.03541
lfingers 7.12502
lthumb -17.5462 26.1928
rfemur -37.2911 3.64038 16.9483
rtibia 27.3254
rfoot -19.0588 -34.2261
rtoes 32.5196
lfemur -33.9953 -0.773834 -28.3052
ltibia 29.5499
lfoot 9.5079 35.2813
ltoes 13.1285
641
root 2.77957 18.2867 -15.8026 182.611 86.8249 156.01
lowerback -0.912557 -0.433518 10.6994
upperback -14.5278 3.84044 13.1542
thorax -16.8125 2.5568 8.71147
lowerneck -8.26986 -19.3725 -3.1937
upperneck -3.74708 -25.4675 9.71837
head 1.89188 -12.5328 2.18955
rclavicle 4.17448e-014 -6.67916e-014
rhumerus -30.4037 34.303 -15.8211
rradius 42.4333
rwrist 24.2037
rhand -29.3368 60.9657
rfingers 7.12502
rthumb -2.67695 31.0027
lclavicle 4.17448e-014 -6.67916e-014
lhumerus -56.0555 -25.7867 13.6366
lradius 87.9489
lwrist -47.9488
lhand -49.9645 -1.71771
lfingers 7.12502
lthumb -22.5551 26.9848
rfemur -37.0711 3.37038 19.7972
rtibia 26.9268
rfoot -19.508 -34.8374
rtoes 32.8457
lfemur -35.1197 -0.856378 -25.3612
ltibia 29.9248
lfoot 11.319 34.3371
ltoes 14.5814
642
root 2.75809 18.2877 -15.7937 180.804 84.9091 154.407
lowerback -1.18221 0.105277 10.0406
upperback -14.6041 4.31998 12.1791
thorax -16.6189 2.73668 7.79901
lowerneck -8.95443 -19.9294 -2.12295
upperneck -4.28054 -26.2171 10.4098
head 1.82549 -12.8858 2.16163
rclavicle 3.65764e-014 -6.36111e-014
rhumerus -31.9696 34.2185 -15.7442
rradius 40.8431
rwrist 22.0995
rhand -29.9156 59.4233
rfingers 7.12502
rthumb -3.23592 29.4681
lclavicle 3.65764e-014 -6.36111e-014
lhumerus -52.9879 -24.7249 11.6734
lradius 86.4435
lwrist -47.6391
lhand -44.8959 -4.46856
lfingers 7.12502
lthumb -17.6835 24.7473
rfemur -36.538 2.54203 18.8795
rtibia 27.0886
rfoot -16.3287 -34.4257
rtoes 29.2378
lfemur -34.895 -1.01977 -26.2738
ltibia 29.6742
lfoot 12.4551 33.6568
ltoes 14.9717
643
root 2.72385 18.2825 -15.7723 189.528 82.8974 163.088
lowerback -1.21216 -0.487149 9.82214
upperback -14.7984 3.8068 13.0912
thorax -16.9947 2.71472 9.14623
lowerneck -8.9612 -19.407 -3.43835
upperneck -4.10835 -25.4448 10.5767
head 2.05203 -12.4821 2.40658
rclavicle -5.1684e-015 6.36111e-015
rhumerus -29.9069 31.6583 -13.9319
rradius 38.7669
rwrist 24.4288
rhand -30.6174 56.2089
rfingers 7.12502
rthumb -3.91365 26.2651
lclavicle -5.1684e-015 6.36111e-015
lhumerus -55.2164 -23.7305 11.8487
lradius 85.3003
lwrist -47.2717
lhand -42.4028 -5.44191
lfingers 7.12502
lthumb -15.2832 23.9734
rfemur -36.2071 3.57713 18.5801
rtibia 26.8803
rfoot -16.7937 -34.693
rtoes 29.4107
lfemur -35.4083 -0.974236 -25.9603
ltibia 29.8641
lfoot 14.3283 32.5503
ltoes 11.8582
644
root 2.6873 18.2818 -15.7506 194.56 80.7762 168.192
lowerback -1.13949 -0.497982 9.63159
upperback -15.0546 3.99673 13.249
thorax -17.4704 2.92149 9.46068
lowerneck -8.7817 -19.458 -4.3223
upperneck -4.12994 -25.4523 11.645
head 2.31292 -12.4518 2.82612
rclavicle -1.82882e-014 -9.54166e-015
rhumerus -29.5464 30.6668 -12.2549
rradius 36.8735
rwrist 24.1474
rhand -29.5515 59.4903
rfingers 7.12502
rthumb -2.88431 29.5301
lclavicle -1.82882e-014 -9.54166e-015
lhumerus -54.9404 -23.0641 11.2787
lradius 83.9273
lwrist -46.9443
lhand -41.6696 -4.96445
lfingers 7.12502
lthumb -14.5768 24.5033
rfemur -35.9015 4.1411 18.5207
rtibia 26.9386
rfoot -19.2708 -33.7385
rtoes 33.375
lfemur -35.6575 -0.803908 -25.6412
ltibia 29.6987
lfoot 16.6219 31.3483
ltoes 8.14079
645
root 2.66115 18.2926 -15.7448 195.18 78.7113 169.154
lowerback -1.03721 -0.411084 9.46578
upperback -15.187 4.18294 13.0471
thorax -17.7214 3.03703 9.28647
lowerneck -9.68586 -19.4645 -2.24522
upperneck -4.56504 -25.5411 10.1578
head 1.78965 -12.5386 2.1066
rclavicle 1.19271e-014 -2.8625e-014
rhumerus -29.5309 29.2281 -11.075
rradius 34.9419
rwrist 24.376
rhand -29.8116 58.5602
rfingers 7.12502
rthumb -3.13547 28.6035
lclavicle 1.19271e-014 -2.8625e-014
lhumerus -54.1588 -22.1953 10.3835
lradius 82.4375
lwrist -46.7862
lhand -47.8693 -0.183704
lfingers 7.12502
lthumb -20.5428 28.7494
rfemur -34.9941 3.06197 18.4787
rtibia 26.6398
rfoot -19.1918 -32.1121
rtoes 42.3571
lfemur -35.6196 -0.773159 -25.763
ltibia 29.8602
lfoot 15.8201 31.491
ltoes 12.9623
646
root 2.63259 18.3091 -15.7358 197.247 76.2181 171.116
lowerback -1.46121 -0.359251 10.0257
upperback -15.3694 4.29957 12.797
thorax -17.6488 3.01131 8.64425
lowerneck -10.1495 -19.6912 -2.23579
upperneck -4.90352 -25.7986 10.7405
head 1.85522 -12.6432 2.21526
rclavicle 4.21423e-014 3.18055e-015
rhumerus -29.664 27.7202 -10.1812
rradius 33.3023
rwrist 24.6803
rhand -30.0899 57.4712
rfingers 7.12502
rthumb -3.4043 27.5186
lclavicle 4.21423e-014 3.18055e-015
lhumerus -53.3375 -21.0608 9.37598
lradius 80.8936
lwrist -46.474
lhand -44.0712 -3.34154
lfingers 7.12502
lthumb -16.8897 25.944
rfemur -34.7082 2.98979 18.3873
rtibia 26.6293
rfoot -18.1289 -31.5293
rtoes 42.7853
lfemur -36.0959 -1.55484 -25.2088
ltibia 29.8813
lfoot 12.2892 33.218
ltoes 24.0457
